<svg xmlns="http://www.w3.org/2000/svg" viewBox="0 0 48 48"><defs><style>.cls-1{fill:white;}</style></defs><title>Asset 351</title><g id="Layer_2" data-name="Layer 2"><g id="_1" data-name="1"><rect class="cls-1" y="46" width="48" height="2"/><path class="cls-1" d="M24,48H2a1,1,0,0,1-1-1V8a1,1,0,0,1,.7-1l22-7a1,1,0,0,1,.89.14A1,1,0,0,1,25,1V47A1,1,0,0,1,24,48ZM3,46H23V2.37L3,8.73Z"/><path class="cls-1" d="M46,48H24a1,1,0,0,1-1-1V13a1,1,0,0,1,.41-.81,1,1,0,0,1,.89-.14l22,7A1,1,0,0,1,47,20V47A1,1,0,0,1,46,48ZM25,46H45V20.73L25,14.37Z"/><path class="cls-1" d="M13,48H7a1,1,0,0,1-1-1V35a1,1,0,0,1,1-1h6a1,1,0,0,1,1,1V47A1,1,0,0,1,13,48ZM8,46h4V36H8Z"/><path class="cls-1" d="M19,42H13a1,1,0,0,1-1-1V35a1,1,0,0,1,1-1h6a1,1,0,0,1,1,1v6A1,1,0,0,1,19,42Zm-5-2h4V36H14Z"/><path class="cls-1" d="M35,48H29a1,1,0,0,1-1-1V35a1,1,0,0,1,1-1h6a1,1,0,0,1,1,1V47A1,1,0,0,1,35,48Zm-5-2h4V36H30Z"/><path class="cls-1" d="M41,42H35a1,1,0,0,1-1-1V35a1,1,0,0,1,1-1h6a1,1,0,0,1,1,1v6A1,1,0,0,1,41,42Zm-5-2h4V36H36Z"/><path class="cls-1" d="M19,30H7a1,1,0,0,1-1-1V23a1,1,0,0,1,1-1H19a1,1,0,0,1,1,1v6A1,1,0,0,1,19,30ZM8,28H18V24H8Z"/><rect class="cls-1" x="12" y="23" width="2" height="6"/><path class="cls-1" d="M41,30H29a1,1,0,0,1-1-1V23a1,1,0,0,1,1-1H41a1,1,0,0,1,1,1v6A1,1,0,0,1,41,30ZM30,28H40V24H30Z"/><rect class="cls-1" x="34" y="23" width="2" height="6"/><path class="cls-1" d="M19,18H7a1,1,0,0,1-1-1V11a1,1,0,0,1,1-1H19a1,1,0,0,1,1,1v6A1,1,0,0,1,19,18ZM8,16H18V12H8Z"/><rect class="cls-1" x="12" y="11" width="2" height="6"/></g></g></svg>
